<svg width="24" height="24" viewBox="0 0 24 24" fill="none" xmlns="http://www.w3.org/2000/svg">
<path d="M18.1705 12.8231C17.9894 12.8243 17.8085 12.8369 17.629 12.8608C18.0428 11.6172 18.155 10.2931 17.9563 8.99769C17.7577 7.70225 17.2538 6.47262 16.4864 5.41022C15.719 4.34782 14.71 3.4831 13.5426 2.88741C12.3753 2.29171 11.083 1.98211 9.77241 1.98414C0.938549 2.14235 -1.67112 13.8455 6.24343 17.7383C6.2437 17.7415 6.24444 19.5929 6.24228 19.5958C6.42166 22.4528 14.2221 22.5184 16.2913 21.0473C19.0692 22.4645 22.5576 20.286 22.5002 17.1528C22.4988 16.0049 22.0423 14.9044 21.2306 14.0927C20.4189 13.281 19.3184 12.8244 18.1705 12.8231ZM4.20508 5.21843L8.87125 9.8843H2.26993C2.35474 8.15174 3.03878 6.50244 4.20508 5.21843ZM4.73536 4.68818C6.0195 3.52186 7.66891 2.83782 9.40157 2.75302V9.35407L4.73536 4.68818ZM2.26476 10.6343H9.77657C9.85065 10.6339 9.92296 10.6117 9.98451 10.5705C10.0461 10.5292 10.0941 10.4708 10.1227 10.4025C10.1416 10.3567 10.1516 2.75302 10.1516 2.75302C11.3492 2.81013 12.5157 3.15322 13.5535 3.75359C14.5913 4.35396 15.4702 5.19414 16.1167 6.20385C16.7633 7.21355 17.1586 8.36341 17.2696 9.55721C17.3806 10.751 17.2041 11.954 16.7548 13.0656C16.5965 13.1208 16.4416 13.1852 16.2909 13.2585C14.2258 11.7841 6.4198 11.8496 6.24222 14.7077C6.24139 14.7253 6.2452 16.8864 6.24334 16.9045C5.09436 16.2929 4.12374 15.3936 3.42637 14.2946C2.729 13.1955 2.32876 11.9343 2.26476 10.6343ZM6.99337 17.226V15.9587C8.2709 16.839 9.83251 17.0898 11.7947 17.1309C12.4833 17.1313 13.1708 17.0764 13.8506 16.9666C13.8479 17.0288 13.8411 17.09 13.8411 17.1528C13.8422 17.668 13.9358 18.1788 14.1175 18.6609C13.3529 18.8151 12.5747 18.8918 11.7947 18.8898C9.05392 18.8898 7.00521 18.0127 6.99337 17.226ZM13.9539 16.1858C12.12 16.5653 9.28784 16.3857 7.8818 15.6305C7.33638 15.3588 6.9893 15.008 6.99268 14.7052C6.99688 13.917 9.0488 13.0366 11.7948 13.0366C13.0795 13.0054 14.3572 13.236 15.55 13.7144C14.746 14.3268 14.1814 15.2011 13.9539 16.1858ZM11.7948 21.2665C9.04988 21.2657 6.99656 20.3881 6.99337 19.5973V18.4808C8.5992 19.6765 12.2364 19.8978 14.45 19.3557C14.7342 19.8338 15.1074 20.2531 15.5494 20.5908C14.3564 21.0676 13.0791 21.2975 11.7948 21.2665ZM18.1705 20.7326C17.2215 20.7314 16.3117 20.3539 15.6406 19.6828C14.9696 19.0117 14.5922 18.1019 14.5911 17.1529C14.7878 12.4037 21.5543 12.4055 21.7502 17.1529C21.7491 18.1019 21.3716 19.0118 20.7005 19.6829C20.0294 20.354 19.1196 20.7315 18.1705 20.7326Z" fill="#A913B7"/>
<path d="M18.1667 15.6571C18.2405 15.6565 18.3138 15.6706 18.3822 15.6984C18.4506 15.7263 18.5128 15.7674 18.5653 15.8194C18.6178 15.8714 18.6594 15.9332 18.6879 16.0014C18.7164 16.0696 18.7311 16.1427 18.7312 16.2166C18.7331 16.3147 18.7735 16.4083 18.8436 16.477C18.9137 16.5458 19.008 16.5843 19.1062 16.5843C19.2044 16.5843 19.2987 16.5458 19.3688 16.477C19.439 16.4082 19.4793 16.3147 19.4812 16.2165C19.4802 15.9354 19.3885 15.6621 19.2198 15.4371C19.0511 15.2122 18.8144 15.0477 18.5448 14.9679V14.4375C18.5448 14.338 18.5053 14.2427 18.435 14.1723C18.3646 14.102 18.2693 14.0625 18.1698 14.0625C18.0704 14.0625 17.975 14.102 17.9046 14.1723C17.8343 14.2427 17.7948 14.338 17.7948 14.4375V14.9675C17.4957 15.0593 17.2394 15.2552 17.0722 15.5197C16.9051 15.7842 16.8383 16.0998 16.8838 16.4094C16.9293 16.7189 17.0842 17.0019 17.3204 17.2071C17.5566 17.4123 17.8584 17.5261 18.1713 17.5279C18.2823 17.5282 18.3907 17.5614 18.4828 17.6233C18.5749 17.6852 18.6466 17.7729 18.6889 17.8756C18.7312 17.9782 18.7421 18.091 18.7202 18.1998C18.6984 18.3086 18.6448 18.4085 18.5662 18.4869C18.4877 18.5652 18.3876 18.6185 18.2788 18.6401C18.1699 18.6616 18.0571 18.6504 17.9546 18.6079C17.8521 18.5653 17.7645 18.4934 17.7029 18.4011C17.6413 18.3088 17.6084 18.2003 17.6084 18.0894C17.6064 17.9911 17.566 17.8975 17.4958 17.8288C17.4255 17.76 17.3311 17.7216 17.2328 17.7217C17.1346 17.7219 17.0403 17.7606 16.9702 17.8296C16.9002 17.8985 16.8601 17.9922 16.8584 18.0905C16.8594 18.3717 16.9511 18.645 17.1197 18.87C17.2884 19.095 17.5252 19.2596 17.7948 19.3394V19.8684C17.7948 19.9177 17.8044 19.9664 17.8233 20.012C17.8421 20.0575 17.8697 20.0988 17.9046 20.1336C17.9394 20.1685 17.9807 20.1961 18.0263 20.2149C18.0718 20.2338 18.1205 20.2434 18.1698 20.2434C18.6604 20.2246 18.5291 19.6647 18.5448 19.3399C18.8439 19.2479 19.1002 19.0519 19.2674 18.7874C19.4345 18.5228 19.5014 18.2072 19.4559 17.8975C19.4105 17.5879 19.2557 17.3048 19.0196 17.0995C18.7834 16.8941 18.4816 16.78 18.1687 16.778C18.0216 16.7758 17.8813 16.7159 17.778 16.6113C17.6747 16.5066 17.6166 16.3656 17.6164 16.2185C17.6161 16.0715 17.6736 15.9302 17.7766 15.8252C17.8795 15.7201 18.0196 15.6598 18.1667 15.6571Z" fill="#A913B7"/>
</svg>
