<svg width="22" height="21" viewBox="0 0 22 21" fill="none" xmlns="http://www.w3.org/2000/svg">
<path d="M17.1705 11.8231C16.9894 11.8243 16.8085 11.8369 16.629 11.8608C17.0428 10.6172 17.155 9.29312 16.9563 7.99769C16.7577 6.70225 16.2538 5.47262 15.4864 4.41022C14.719 3.34782 13.71 2.4831 12.5426 1.88741C11.3753 1.29171 10.083 0.98211 8.77241 0.984141C-0.061451 1.14235 -2.67112 12.8455 5.24343 16.7383C5.2437 16.7415 5.24444 18.5929 5.24228 18.5958C5.42166 21.4528 13.2221 21.5184 15.2913 20.0473C18.0692 21.4645 21.5576 19.286 21.5002 16.1528C21.4988 15.0049 21.0423 13.9044 20.2306 13.0927C19.4189 12.281 18.3184 11.8244 17.1705 11.8231ZM3.20508 4.21843L7.87125 8.8843H1.26993C1.35474 7.15174 2.03878 5.50244 3.20508 4.21843ZM3.73536 3.68818C5.0195 2.52186 6.66891 1.83782 8.40157 1.75302V8.35407L3.73536 3.68818ZM1.26476 9.6343H8.77657C8.85065 9.63388 8.92296 9.61168 8.98451 9.57046C9.04606 9.52924 9.09412 9.47082 9.1227 9.40248C9.14163 9.35668 9.15157 1.75302 9.15157 1.75302C10.3492 1.81013 11.5157 2.15322 12.5535 2.75359C13.5913 3.35396 14.4702 4.19414 15.1167 5.20385C15.7633 6.21355 16.1586 7.36341 16.2696 8.55721C16.3806 9.75101 16.2041 10.954 15.7548 12.0656C15.5965 12.1208 15.4416 12.1852 15.2909 12.2585C13.2258 10.7841 5.4198 10.8496 5.24222 13.7077C5.24139 13.7253 5.2452 15.8864 5.24334 15.9045C4.09436 15.2929 3.12374 14.3936 2.42637 13.2946C1.729 12.1955 1.32876 10.9343 1.26476 9.6343ZM5.99337 16.226V14.9587C7.2709 15.839 8.83251 16.0898 10.7947 16.1309C11.4833 16.1313 12.1708 16.0764 12.8506 15.9666C12.8479 16.0288 12.8411 16.09 12.8411 16.1528C12.8422 16.668 12.9358 17.1788 13.1175 17.6609C12.3529 17.8151 11.5747 17.8918 10.7947 17.8898C8.05392 17.8898 6.00521 17.0127 5.99337 16.226ZM12.9539 15.1858C11.12 15.5653 8.28784 15.3857 6.8818 14.6305C6.33638 14.3588 5.9893 14.008 5.99268 13.7052C5.99688 12.917 8.0488 12.0366 10.7948 12.0366C12.0795 12.0054 13.3572 12.236 14.55 12.7144C13.746 13.3268 13.1814 14.2011 12.9539 15.1858ZM10.7948 20.2665C8.04988 20.2657 5.99656 19.3881 5.99337 18.5973V17.4808C7.5992 18.6765 11.2364 18.8978 13.45 18.3557C13.7342 18.8338 14.1074 19.2531 14.5494 19.5908C13.3564 20.0676 12.0791 20.2975 10.7948 20.2665ZM17.1705 19.7326C16.2215 19.7314 15.3117 19.3539 14.6406 18.6828C13.9696 18.0117 13.5922 17.1019 13.5911 16.1529C13.7878 11.4037 20.5543 11.4055 20.7502 16.1529C20.7491 17.1019 20.3716 18.0118 19.7005 18.6829C19.0294 19.354 18.1196 19.7315 17.1705 19.7326Z" fill="#A913B7"/>
</svg>
