<svg width="24" height="24" viewBox="0 0 24 24" fill="none" xmlns="http://www.w3.org/2000/svg">
<path d="M6.5 8.5H17.5M6.5 5.5H17.5M6.5 14.5H12.5M6.5 11.5H17.5M6.5 17.5H12.5M19 0.5H18.4C18.1 1.3 17.3 1.7 16.5 1.4C16.1 1.3 15.7 0.9 15.6 0.5H13.4C13.1 1.3 12.3 1.7 11.5 1.4C11.1 1.3 10.7 0.9 10.6 0.5H8.4C8.1 1.3 7.3 1.7 6.5 1.4C6.1 1.3 5.7 0.9 5.6 0.5H5C4.2 0.5 3.5 1.2 3.5 2V22C3.5 22.8 4.2 23.5 5 23.5H5.6C5.9 22.7 6.7 22.3 7.5 22.6C7.9 22.7 8.3 23.1 8.4 23.5H10.6C10.9 22.7 11.7 22.3 12.5 22.6C12.9 22.7 13.3 23.1 13.4 23.5H15.6C15.9 22.7 16.7 22.3 17.5 22.6C17.9 22.7 18.3 23.1 18.4 23.5H19C19.8 23.5 20.5 22.8 20.5 22V2C20.5 1.2 19.8 0.5 19 0.5Z" stroke="#A913B7" stroke-linecap="round" stroke-linejoin="round"/>
<path d="M17.5 14.5H16.5M16.5 14.5C15.9 14.5 15.5 14.9 15.5 15.5C15.5 16.1 15.9 16.5 16.5 16.5C17.1 16.5 17.5 16.9 17.5 17.5C17.5 18.1 17.1 18.5 16.5 18.5M16.5 14.5V14M16.5 18.5H15.5M16.5 18.5V19" stroke="#A913B7" stroke-linecap="round" stroke-linejoin="round"/>
</svg>
