<svg width="24" height="24" viewBox="0 0 24 24" fill="none" xmlns="http://www.w3.org/2000/svg">
<path d="M21.5088 12.2794C21.5088 11.2625 19.9037 10.7305 18.3185 10.7305C16.7328 10.7305 15.1272 11.2625 15.1272 12.2794C15.1272 12.2989 15.1277 13.49 15.1277 13.49C14.8226 12.6869 13.4045 12.2681 11.9993 12.2681C10.4138 12.2681 8.80871 12.8002 8.80871 13.8169C8.80871 13.8365 8.80919 15.0274 8.80919 15.0274C8.50439 14.2244 7.08623 13.8056 5.68079 13.8056C4.09535 13.8056 2.49023 14.3377 2.49023 15.3543C2.49023 15.3692 2.49479 18.5122 2.50127 18.5393C2.61479 19.4833 4.15463 19.9774 5.68103 19.9774C7.14335 19.9774 8.61887 19.5238 8.84039 18.6562C8.90951 18.9092 9.11687 19.2411 9.68303 19.5202C10.2701 19.8109 11.1146 19.9774 11.9998 19.9774C12.8849 19.9774 13.7294 19.8109 14.3162 19.5205C14.7797 19.2917 15.0684 18.9886 15.1579 18.6517C15.3751 19.5224 16.8538 19.9774 18.319 19.9774C19.8648 19.9774 21.425 19.4703 21.5021 18.5024C21.5064 18.4786 21.5088 12.2974 21.5088 12.2794ZM3.20999 16.3678C3.82559 16.7211 4.75535 16.9035 5.68055 16.9035C6.60599 16.9035 7.53551 16.7209 8.15135 16.3678V16.8915C8.15135 17.0209 7.96631 17.1961 7.68023 17.3374C7.18823 17.5808 6.45935 17.7202 5.68055 17.7202C4.90175 17.7202 4.17287 17.5808 3.68087 17.3374C3.39479 17.1958 3.20999 17.0209 3.20999 16.8915V16.3678ZM9.68063 14.9089C10.2684 15.1995 11.1137 15.3661 11.9993 15.3661C12.8849 15.3661 13.7302 15.1995 14.3184 14.9089C14.3722 14.8825 14.4216 14.8539 14.4706 14.8251V15.3502C14.4706 15.3519 14.4701 15.3533 14.4701 15.355C14.4701 15.4844 14.285 15.6596 13.9994 15.8009C13.507 16.0443 12.7781 16.1837 11.9993 16.1837C11.2205 16.1837 10.4916 16.0443 9.99959 15.8009C9.71591 15.6605 9.53231 15.4873 9.52919 15.3584V14.8275C9.57671 14.8551 9.62663 14.8822 9.68063 14.9089ZM15.9991 13.3707C16.5857 13.6616 17.4312 13.8281 18.3185 13.8281C19.2048 13.8281 20.0501 13.6616 20.6371 13.3709C20.6914 13.3443 20.7415 13.3167 20.7893 13.2891V13.8123C20.7893 13.814 20.7888 13.8154 20.7888 13.8171C20.7888 13.9469 20.604 14.1221 20.3179 14.263C19.8259 14.5066 19.0973 14.6463 18.3185 14.6463C17.539 14.6463 16.8101 14.5066 16.3183 14.2628C16.0339 14.1226 15.8503 13.9493 15.8477 13.8197V13.2893C15.8952 13.3167 15.9451 13.3441 15.9991 13.3707ZM20.7893 15.3488C20.7893 15.3505 20.7888 15.3519 20.7888 15.3536C20.7888 15.4515 20.665 15.6274 20.316 15.7995C19.8235 16.0431 19.0956 16.1828 18.3185 16.1828C17.5409 16.1828 16.813 16.0431 16.3205 15.7993C15.9749 15.6289 15.8501 15.4553 15.8477 15.3565V14.8251C15.8966 14.8534 15.9456 14.8815 15.9991 14.9081C16.5864 15.1993 17.4319 15.3661 18.3185 15.3661C19.2043 15.3661 20.0496 15.1993 20.6369 14.9086C20.6914 14.882 20.7415 14.8544 20.7893 14.8268V15.3488ZM9.52919 16.3633C9.57815 16.3916 9.62711 16.4199 9.68063 16.4465C10.2684 16.7372 11.1137 16.9037 11.9993 16.9037C12.8849 16.9037 13.7302 16.7372 14.3184 16.4465C14.3722 16.4201 14.4216 16.3916 14.4706 16.3628V16.8869C14.4706 16.8886 14.4701 16.8901 14.4701 16.8917C14.4701 16.9899 14.3462 17.1656 13.997 17.3377C13.5046 17.581 12.7766 17.7205 11.9993 17.7205C11.2222 17.7205 10.494 17.581 10.0015 17.3374C9.65663 17.1675 9.53207 16.9942 9.52919 16.8956V16.3633ZM15.8477 16.3623C15.8959 16.3901 15.9468 16.4177 16.0018 16.4451C16.5893 16.736 17.4338 16.9028 18.3185 16.9028C19.2026 16.9028 20.047 16.736 20.635 16.4451C20.6894 16.4182 20.7396 16.3894 20.7893 16.3604V16.8867C20.7893 16.8884 20.7888 16.8898 20.7888 16.8915C20.7888 16.9894 20.665 17.1653 20.3162 17.3374C19.8235 17.5808 19.0954 17.7202 18.3185 17.7202C17.5411 17.7202 16.8132 17.5808 16.3205 17.3372C15.9749 17.1668 15.8501 16.9933 15.8477 16.8944V16.3623ZM18.3185 11.4505C19.9169 11.4505 20.7888 11.9981 20.7888 12.2794C20.7888 12.409 20.604 12.5842 20.3179 12.7253C19.8266 12.9687 19.0978 13.1081 18.3185 13.1081C17.5382 13.1081 16.8096 12.9687 16.3186 12.7253C16.0322 12.5837 15.8472 12.4088 15.8472 12.2794C15.8472 11.9981 16.7196 11.4505 18.3185 11.4505ZM11.9993 12.9881C13.5979 12.9881 14.4701 13.5356 14.4701 13.8169C14.4701 13.9465 14.285 14.1219 13.9994 14.2633C13.507 14.5066 12.7781 14.6461 11.9993 14.6461C11.2205 14.6461 10.4916 14.5066 9.99959 14.2633C9.71351 14.1217 9.52871 13.9467 9.52871 13.8169C9.52871 13.5356 10.4006 12.9881 11.9993 12.9881ZM5.68079 14.5256C7.27943 14.5256 8.15159 15.073 8.15159 15.3543C8.15159 15.6358 7.27943 16.1835 5.68079 16.1835C4.08215 16.1835 3.21023 15.6358 3.21023 15.3543C3.20999 15.0733 4.08215 14.5256 5.68079 14.5256ZM5.68079 19.2577C4.08215 19.2577 3.21023 18.7102 3.21023 18.4289V17.8995C3.25919 17.9281 3.30839 17.9564 3.36215 17.983C3.95015 18.2737 4.79519 18.4402 5.68103 18.4402C6.56687 18.4402 7.41191 18.2737 7.99991 17.983C8.05367 17.9566 8.10287 17.9281 8.15183 17.8995V18.4289C8.15159 18.7102 7.27943 19.2577 5.68079 19.2577ZM13.9968 18.8751C13.5055 19.1185 12.7774 19.2579 11.9993 19.2579C11.2212 19.2579 10.4933 19.1185 10.0015 18.8749C9.65495 18.704 9.53063 18.53 9.52895 18.4313C9.52895 18.4306 9.52919 18.4297 9.52919 18.4289V17.9005C9.57743 17.9283 9.62807 17.9559 9.68279 17.983C10.2708 18.2737 11.1151 18.4402 11.9993 18.4402C12.8837 18.4402 13.7278 18.2737 14.3158 17.9833C14.3705 17.9564 14.4206 17.9276 14.4706 17.8983V18.4241C14.4706 18.4258 14.4701 18.4273 14.4701 18.4289C14.4701 18.5271 14.3462 18.7028 13.9968 18.8751ZM18.3185 19.2577C16.7222 19.2577 15.8506 18.7121 15.8474 18.4304C15.8474 18.4297 15.8477 18.4292 15.8477 18.4285V17.9002C15.8962 17.9281 15.9468 17.9557 16.002 17.983C16.59 18.2737 17.4343 18.4402 18.3185 18.4402C19.2022 18.4402 20.0465 18.2737 20.635 17.983C20.6894 17.9561 20.7396 17.9273 20.7893 17.8983V18.4241C20.7893 18.4258 20.7888 18.4273 20.7888 18.4289C20.7888 18.7102 19.9169 19.2577 18.3185 19.2577ZM3.22127 12.6389C3.22415 12.6389 3.22679 12.6389 3.22991 12.6389C9.86567 12.4841 15.2621 9.09366 17.1007 7.7871L18.2249 8.91126C18.2938 8.98014 18.3859 9.01662 18.4795 9.01662C18.5258 9.01662 18.5729 9.00774 18.6173 8.98926C18.7519 8.93358 18.8395 8.8023 18.8395 8.65662V4.38222C18.8395 4.18326 18.6782 4.02222 18.4795 4.02222H14.2049C14.0594 4.02222 13.9282 4.10982 13.8722 4.24446C13.8163 4.3791 13.8473 4.5339 13.9502 4.63686L14.9918 5.67846C9.65111 10.5092 3.21263 11.9129 3.14711 11.9266C2.96519 11.965 2.84231 12.1357 2.86367 12.3205C2.88479 12.5024 3.03911 12.6389 3.22127 12.6389ZM15.7591 5.95446C15.7608 5.95302 16.0303 5.70078 15.7714 5.44182C15.7699 5.44038 15.7694 5.43846 15.768 5.43678L15.0737 4.74222H18.119V7.78734L17.393 7.06134C17.3916 7.06014 17.3899 7.05966 17.3885 7.05846C17.3566 7.0275 17.1782 6.85494 16.9253 7.02582C15.69 7.93302 11.8145 10.5293 6.74207 11.527C9.23879 10.5454 12.6982 8.81262 15.7591 5.95446Z" fill="#A913B7"/>
</svg>
