<svg width="20" height="25" viewBox="0 0 20 25" fill="none" xmlns="http://www.w3.org/2000/svg">
<path fill-rule="evenodd" clip-rule="evenodd" d="M7.5 0.000114049C7.3126 -0.00167605 7.12559 0.0176118 6.9425 0.0576141C3.0925 0.352614 0 3.58011 0 7.50011C0 11.4251 3.1 14.6601 6.9575 14.9476C7.13588 14.9848 7.31779 15.0024 7.5 15.0001H12.5C13.9275 15.0001 15 16.0726 15 17.5001C15 18.9276 13.9275 20.0001 12.5 20.0001H2.5C1.83696 20.0001 1.20107 20.2635 0.732234 20.7323C0.263393 21.2012 0 21.8371 0 22.5001C0 23.1632 0.263393 23.799 0.732234 24.2679C1.20107 24.7367 1.83696 25.0001 2.5 25.0001H12.5C12.6874 25.0019 12.8744 24.9826 13.0575 24.9426C16.9075 24.6476 20 21.4226 20 17.5001C20 13.5751 16.9 10.3401 13.0425 10.0526C12.8641 10.0154 12.6822 9.99779 12.5 10.0001H7.5C6.0725 10.0001 5 8.92761 5 7.50011C5 6.07261 6.0725 5.00011 7.5 5.00011H17.5C18.163 5.00011 18.7989 4.73672 19.2678 4.26788C19.7366 3.79904 20 3.16316 20 2.50011C20 1.83707 19.7366 1.20119 19.2678 0.732347C18.7989 0.263506 18.163 0.000114049 17.5 0.000114049H7.5Z" fill="black"/>
</svg>
