<svg width="122" height="28" viewBox="0 0 122 28" fill="none" xmlns="http://www.w3.org/2000/svg">
<path d="M44.2218 11.3H42.2491C42.1324 10.7326 41.9283 10.2341 41.6366 9.80455C41.3502 9.375 41.0002 9.01439 40.5866 8.72273C40.1783 8.42576 39.7249 8.20303 39.2264 8.05455C38.7279 7.90606 38.2082 7.83182 37.6673 7.83182C36.6809 7.83182 35.7874 8.08106 34.9866 8.57955C34.1912 9.07803 33.5574 9.8125 33.0855 10.783C32.6188 11.7534 32.3855 12.9439 32.3855 14.3545C32.3855 15.7652 32.6188 16.9557 33.0855 17.9261C33.5574 18.8966 34.1912 19.6311 34.9866 20.1295C35.7874 20.628 36.6809 20.8773 37.6673 20.8773C38.2082 20.8773 38.7279 20.803 39.2264 20.6545C39.7249 20.5061 40.1783 20.286 40.5866 19.9943C41.0002 19.6973 41.3502 19.3341 41.6366 18.9045C41.9283 18.4697 42.1324 17.9712 42.2491 17.4091H44.2218C44.0733 18.2417 43.8029 18.9867 43.4105 19.6443C43.018 20.3019 42.5302 20.8614 41.9468 21.3227C41.3635 21.7788 40.7086 22.1261 39.9821 22.3648C39.2608 22.6034 38.4893 22.7227 37.6673 22.7227C36.2779 22.7227 35.0423 22.3833 33.9605 21.7045C32.8787 21.0258 32.0275 20.0606 31.4071 18.8091C30.7866 17.5576 30.4764 16.0727 30.4764 14.3545C30.4764 12.6364 30.7866 11.1515 31.4071 9.9C32.0275 8.64849 32.8787 7.68333 33.9605 7.00455C35.0423 6.32576 36.2779 5.98636 37.6673 5.98636C38.4893 5.98636 39.2608 6.10568 39.9821 6.34432C40.7086 6.58295 41.3635 6.93295 41.9468 7.39432C42.5302 7.85038 43.018 8.4072 43.4105 9.06477C43.8029 9.71704 44.0733 10.4621 44.2218 11.3ZM46.0656 22.5V6.20909H51.5702C52.8429 6.20909 53.8876 6.42651 54.7043 6.86136C55.5209 7.29091 56.1255 7.8822 56.5179 8.63523C56.9103 9.38826 57.1065 10.2447 57.1065 11.2045C57.1065 12.1644 56.9103 13.0155 56.5179 13.758C56.1255 14.5004 55.5236 15.0837 54.7122 15.508C53.9008 15.9269 52.8641 16.1364 51.602 16.1364H47.1474V14.3545H51.5383C52.408 14.3545 53.108 14.2273 53.6383 13.9727C54.174 13.7182 54.5611 13.3576 54.7997 12.8909C55.0436 12.4189 55.1656 11.8568 55.1656 11.2045C55.1656 10.5523 55.0436 9.9822 54.7997 9.49432C54.5558 9.00644 54.166 8.62992 53.6304 8.36477C53.0948 8.09432 52.3868 7.95909 51.5065 7.95909H48.0383V22.5H46.0656ZM53.7338 15.1818L57.7429 22.5H55.452L51.5065 15.1818H53.7338ZM59.0497 22.5V6.20909H68.8816V7.95909H61.0225V13.4636H68.3725V15.2136H61.0225V20.75H69.0088V22.5H59.0497ZM76.1205 22.5H71.0932V6.20909H76.3432C77.9235 6.20909 79.2758 6.53523 80.4001 7.1875C81.5243 7.83447 82.386 8.76515 82.9853 9.97955C83.5845 11.1886 83.8842 12.6364 83.8842 14.3227C83.8842 16.0197 83.5819 17.4807 82.9773 18.7057C82.3728 19.9254 81.4925 20.864 80.3364 21.5216C79.1804 22.1739 77.7751 22.5 76.1205 22.5ZM73.066 20.75H75.9932C77.3402 20.75 78.4565 20.4902 79.3421 19.9705C80.2277 19.4508 80.8879 18.711 81.3228 17.7511C81.7576 16.7913 81.9751 15.6485 81.9751 14.3227C81.9751 13.0076 81.7603 11.8754 81.3307 10.9261C80.9012 9.97159 80.2595 9.23977 79.4057 8.73068C78.552 8.21629 77.4887 7.95909 76.216 7.95909H73.066V20.75ZM87.822 6.20909V22.5H85.8492V6.20909H87.822ZM89.5425 7.95909V6.20909H101.761V7.95909H96.6379V22.5H94.6652V7.95909H89.5425Z" fill="#1B2733"/>
<rect y="10" width="15" height="15" rx="3" fill="#CB0DEA"/>
<rect x="5" y="3" width="15" height="15" rx="3" fill="#DC33F7" fill-opacity="0.68"/>
<rect x="117.1" y="11.7" width="4.16" height="4.8" fill="white"/>
</svg>
