<svg width="123" height="27" viewBox="0 0 123 27" fill="none" xmlns="http://www.w3.org/2000/svg">
<path d="M44.222 10.8H42.2492C42.1326 10.2326 41.9284 9.73409 41.6367 9.30455C41.3504 8.875 41.0004 8.51439 40.5867 8.22273C40.1784 7.92576 39.725 7.70303 39.2265 7.55455C38.728 7.40606 38.2083 7.33182 37.6674 7.33182C36.681 7.33182 35.7875 7.58106 34.9867 8.07955C34.1913 8.57803 33.5576 9.3125 33.0856 10.283C32.6189 11.2534 32.3856 12.4439 32.3856 13.8545C32.3856 15.2652 32.6189 16.4557 33.0856 17.4261C33.5576 18.3966 34.1913 19.1311 34.9867 19.6295C35.7875 20.128 36.681 20.3773 37.6674 20.3773C38.2083 20.3773 38.728 20.303 39.2265 20.1545C39.725 20.0061 40.1784 19.786 40.5867 19.4943C41.0004 19.1973 41.3504 18.8341 41.6367 18.4045C41.9284 17.9697 42.1326 17.4712 42.2492 16.9091H44.222C44.0735 17.7417 43.803 18.4867 43.4106 19.1443C43.0182 19.8019 42.5303 20.3614 41.947 20.8227C41.3636 21.2788 40.7087 21.6261 39.9822 21.8648C39.261 22.1034 38.4894 22.2227 37.6674 22.2227C36.278 22.2227 35.0424 21.8833 33.9606 21.2045C32.8788 20.5258 32.0276 19.5606 31.4072 18.3091C30.7867 17.0576 30.4765 15.5727 30.4765 13.8545C30.4765 12.1364 30.7867 10.6515 31.4072 9.4C32.0276 8.14849 32.8788 7.18333 33.9606 6.50455C35.0424 5.82576 36.278 5.48636 37.6674 5.48636C38.4894 5.48636 39.261 5.60568 39.9822 5.84432C40.7087 6.08295 41.3636 6.43295 41.947 6.89432C42.5303 7.35038 43.0182 7.9072 43.4106 8.56477C43.803 9.21704 44.0735 9.96212 44.222 10.8ZM46.0657 22V5.70909H51.5703C52.843 5.70909 53.8877 5.92651 54.7044 6.36136C55.521 6.79091 56.1256 7.3822 56.518 8.13523C56.9104 8.88826 57.1066 9.7447 57.1066 10.7045C57.1066 11.6644 56.9104 12.5155 56.518 13.258C56.1256 14.0004 55.5237 14.5837 54.7123 15.008C53.901 15.4269 52.8642 15.6364 51.6021 15.6364H47.1476V13.8545H51.5385C52.4082 13.8545 53.1082 13.7273 53.6385 13.4727C54.1741 13.2182 54.5612 12.8576 54.7998 12.3909C55.0438 11.9189 55.1657 11.3568 55.1657 10.7045C55.1657 10.0523 55.0438 9.4822 54.7998 8.99432C54.5559 8.50644 54.1661 8.12992 53.6305 7.86477C53.0949 7.59432 52.387 7.45909 51.5066 7.45909H48.0385V22H46.0657ZM53.7339 14.6818L57.743 22H55.4521L51.5066 14.6818H53.7339ZM59.0499 22V5.70909H68.8817V7.45909H61.0226V12.9636H68.3726V14.7136H61.0226V20.25H69.009V22H59.0499ZM76.1206 22H71.0934V5.70909H76.3434C77.9237 5.70909 79.2759 6.03523 80.4002 6.6875C81.5244 7.33447 82.3862 8.26515 82.9854 9.47955C83.5847 10.6886 83.8843 12.1364 83.8843 13.8227C83.8843 15.5197 83.582 16.9807 82.9775 18.2057C82.3729 19.4254 81.4926 20.364 80.3365 21.0216C79.1805 21.6739 77.7752 22 76.1206 22ZM73.0661 20.25H75.9934C77.3403 20.25 78.4566 19.9902 79.3422 19.4705C80.2278 18.9508 80.8881 18.211 81.3229 17.2511C81.7578 16.2913 81.9752 15.1485 81.9752 13.8227C81.9752 12.5076 81.7604 11.3754 81.3309 10.4261C80.9013 9.47159 80.2597 8.73977 79.4059 8.23068C78.5521 7.71629 77.4888 7.45909 76.2161 7.45909H73.0661V20.25ZM87.8221 5.70909V22H85.8494V5.70909H87.8221ZM89.5426 7.45909V5.70909H101.761V7.45909H96.638V22H94.6653V7.45909H89.5426ZM105.434 5.70909V22H103.461V5.70909H105.434ZM108.714 22H106.645L112.627 5.70909H114.664L120.645 22H118.577L113.709 8.28636H113.582L108.714 22ZM109.477 15.6364H117.814V17.3864H109.477V15.6364Z" fill="#1B2733"/>
<rect y="9.5" width="15" height="15" rx="3" fill="#CB0DEA"/>
<rect x="5" y="2.5" width="15" height="15" rx="3" fill="#DC33F7" fill-opacity="0.68"/>
</svg>
