<svg width="24" height="24" viewBox="0 0 24 24" fill="none" xmlns="http://www.w3.org/2000/svg">
<g clip-path="url(#clip0_69_5706)">
<path d="M21.7683 6.1201L16.9683 4.3441C17.0643 4.3921 16.8243 4.2481 16.6323 4.3441L12.0003 6.0481L7.39234 4.3441C7.48834 4.3921 7.24834 4.2481 7.05634 4.3441L2.25634 6.1201C2.06434 6.1921 1.94434 6.3601 1.94434 6.5761V19.2001C1.94434 20.0401 3.00034 19.4881 2.59234 19.6561L7.20034 17.9521L11.8083 19.6561C12.0243 19.7281 12.2643 19.6081 12.1683 19.6561L16.8003 17.9521L21.4323 19.6561C21.7443 19.7761 22.0803 19.5601 22.0803 19.2001V6.5761C22.0803 6.3841 21.9603 6.1921 21.7683 6.1201ZM6.72034 17.1121L2.88034 18.4801V6.8881L6.72034 5.4961V17.1121ZM11.5203 18.4801L7.68034 17.0881V5.4961L11.5203 6.8881V18.4801ZM16.3203 17.1121L12.4803 18.4801V6.8881L16.3203 5.4961V17.1121ZM21.1203 18.4801L17.2803 17.0881V5.4961L21.1203 6.8881V18.4801Z" fill="#637282"/>
<path d="M327.36 -88.8V315.36H-100.8V-88.8H327.36ZM329.28 -90.72H-102.72V317.28H329.28V-90.72Z" fill="#0000FF"/>
</g>
<defs>
<clipPath id="clip0_69_5706">
<rect width="24" height="24" fill="white"/>
</clipPath>
</defs>
</svg>
