<svg width="20" height="20" viewBox="0 0 20 20" fill="none" xmlns="http://www.w3.org/2000/svg">
<path d="M5.74552 2.12741C5.60436 1.84508 5.3158 1.66675 5.00016 1.66675C4.68452 1.66675 4.39596 1.84508 4.2548 2.12741L3.91838 2.80026C3.64805 3.34093 3.5874 3.44016 3.51382 3.51374C3.44025 3.58732 3.34101 3.64796 2.80035 3.9183L2.12749 4.25472C1.84516 4.39588 1.66683 4.68444 1.66683 5.00008C1.66683 5.31572 1.84516 5.60428 2.12749 5.74544L2.80035 6.08186C3.34101 6.3522 3.44025 6.41284 3.51382 6.48642C3.5874 6.56 3.64805 6.65923 3.91838 7.1999L4.2548 7.87276C4.39596 8.15508 4.68452 8.33341 5.00016 8.33341C5.3158 8.33341 5.60436 8.15508 5.74552 7.87276L6.08195 7.1999C6.35228 6.65923 6.41292 6.56 6.4865 6.48642C6.56008 6.41284 6.65931 6.3522 7.19998 6.08186L7.87284 5.74544C8.15516 5.60428 8.3335 5.31572 8.3335 5.00008C8.3335 4.68444 8.15516 4.39588 7.87284 4.25472L7.19998 3.9183C6.65931 3.64796 6.56008 3.58732 6.4865 3.51374C6.41292 3.44016 6.35228 3.34093 6.08195 2.80026L5.74552 2.12741ZM14.0788 3.79407C13.9377 3.51175 13.6492 3.33341 13.3335 3.33341C13.0178 3.33341 12.7293 3.51175 12.5882 3.79407L11.9152 5.13979C11.3987 6.173 11.2149 6.51851 10.9501 6.78333C10.6852 7.04815 10.3397 7.23193 9.3065 7.74853L7.96082 8.42141C7.6785 8.56258 7.50016 8.85108 7.50016 9.16675C7.50016 9.48241 7.6785 9.77091 7.96082 9.91208L9.3065 10.585C10.3397 11.1016 10.6852 11.2853 10.9501 11.5502C11.2149 11.815 11.3987 12.1605 11.9152 13.1937L12.5882 14.5394C12.7293 14.8217 13.0178 15.0001 13.3335 15.0001C13.6492 15.0001 13.9377 14.8217 14.0788 14.5394L14.7517 13.1937C15.2683 12.1605 15.4521 11.815 15.7169 11.5502C15.9817 11.2853 16.3272 11.1016 17.3605 10.585L18.7062 9.91208C18.9885 9.77091 19.1668 9.48241 19.1668 9.16675C19.1668 8.85108 18.9885 8.56258 18.7062 8.42141L17.3605 7.74853C16.3272 7.23193 15.9817 7.04815 15.7169 6.78333C15.4521 6.51851 15.2683 6.173 14.7517 5.13979L14.0788 3.79407ZM5.74552 10.4607C5.60436 10.1784 5.3158 10.0001 5.00016 10.0001C4.68452 10.0001 4.39596 10.1784 4.2548 10.4607L4.1375 10.6953C3.6209 11.7286 3.43712 12.0741 3.1723 12.3389C2.90748 12.6037 2.56197 12.7875 1.52875 13.3041L1.29415 13.4214C1.01183 13.5626 0.833496 13.8511 0.833496 14.1667C0.833496 14.4824 1.01183 14.7709 1.29415 14.9121L1.52875 15.0294C2.56197 15.546 2.90748 15.7298 3.1723 15.9946C3.43712 16.2594 3.6209 16.6049 4.1375 17.6382L4.2548 17.8727C4.39596 18.1551 4.68452 18.3334 5.00016 18.3334C5.3158 18.3334 5.60436 18.1551 5.74552 17.8727L5.86282 17.6382C6.37943 16.6049 6.56321 16.2594 6.82803 15.9946C7.09285 15.7298 7.43835 15.546 8.47158 15.0294L8.70616 14.9121C8.9885 14.7709 9.16683 14.4824 9.16683 14.1667C9.16683 13.8511 8.9885 13.5626 8.70616 13.4214L8.47158 13.3041C7.43835 12.7875 7.09285 12.6037 6.82803 12.3389C6.56321 12.0741 6.37943 11.7286 5.86282 10.6953L5.74552 10.4607Z" fill="#A913B7"/>
</svg>
