<svg width="40" height="41" viewBox="0 0 40 41" fill="none" xmlns="http://www.w3.org/2000/svg">
<path d="M3.125 16.4375C2.95349 16.4375 2.78259 16.3905 2.63214 16.2977C2.35566 16.1268 2.1875 15.8247 2.1875 15.5V11.125C2.1875 10.7698 2.388 10.4451 2.70569 10.2864L17.7057 2.78638C17.9697 2.65515 18.2794 2.65393 18.544 2.78638L23.5376 5.28027C24.0009 5.51159 24.1888 6.07434 23.9575 6.53759C23.7259 7.00146 23.1625 7.18823 22.6999 6.95752L18.1253 4.67298L4.0625 11.7042V13.9833L17.7057 7.16138C17.97 7.02954 18.28 7.02954 18.5443 7.16138L21.6318 8.70496C22.0947 8.93628 22.2824 9.49963 22.0511 9.96289C21.8195 10.4262 21.2567 10.6141 20.7931 10.3822L18.125 9.04798L3.54431 16.3386C3.41187 16.4045 3.26843 16.4375 3.125 16.4375Z" fill="#293A4C"/>
<path d="M21.9751 16.4375H3.125C2.60712 16.4375 2.1875 16.0176 2.1875 15.5C2.1875 14.9824 2.60712 14.5625 3.125 14.5625H21.9751C22.493 14.5625 22.9126 14.9824 22.9126 15.5C22.9126 16.0176 22.493 16.4375 21.9751 16.4375Z" fill="#293A4C"/>
<path d="M20.625 30.8125H15.625C15.1071 30.8125 14.6875 30.3926 14.6875 29.875V15.5C14.6875 14.9824 15.1071 14.5625 15.625 14.5625H20.625C21.1429 14.5625 21.5625 14.9824 21.5625 15.5V29.875C21.5625 30.3926 21.1429 30.8125 20.625 30.8125ZM16.5625 28.9375H19.6875V16.4375H16.5625V28.9375ZM10.625 30.8125H5.625C5.10712 30.8125 4.6875 30.3926 4.6875 29.875V15.5C4.6875 14.9824 5.10712 14.5625 5.625 14.5625H10.625C11.1429 14.5625 11.5625 14.9824 11.5625 15.5V29.875C11.5625 30.3926 11.1429 30.8125 10.625 30.8125ZM6.5625 28.9375H9.6875V16.4375H6.5625V28.9375ZM30.625 30.8125H25.625C25.1071 30.8125 24.6875 30.3926 24.6875 29.875V18.8435C24.6875 18.3259 25.1071 17.906 25.625 17.906C26.1429 17.906 26.5625 18.3259 26.5625 18.8435V28.9375H29.6875V23C29.6875 22.4824 30.1071 22.0625 30.625 22.0625C31.1429 22.0625 31.5625 22.4824 31.5625 23V29.875C31.5625 30.3926 31.1429 30.8125 30.625 30.8125ZM33.125 38.3125H3.125C2.60712 38.3125 2.1875 37.8926 2.1875 37.375V33.625C2.1875 33.1074 2.60712 32.6875 3.125 32.6875H33.125C33.6429 32.6875 34.0625 33.1074 34.0625 33.625V37.375C34.0625 37.8926 33.6429 38.3125 33.125 38.3125ZM4.0625 36.4375H32.1875V34.5625H4.0625V36.4375Z" fill="#293A4C"/>
<path d="M30.625 34.5625H5.625C5.10712 34.5625 4.6875 34.1426 4.6875 33.625V29.875C4.6875 29.3574 5.10712 28.9375 5.625 28.9375H30.625C31.1429 28.9375 31.5625 29.3574 31.5625 29.875V33.625C31.5625 34.1426 31.1429 34.5625 30.625 34.5625ZM6.5625 32.6875H29.6875V30.8125H6.5625V32.6875ZM10.625 27.0625H5.625C5.10712 27.0625 4.6875 26.6426 4.6875 26.125C4.6875 25.6074 5.10712 25.1875 5.625 25.1875H10.625C11.1429 25.1875 11.5625 25.6074 11.5625 26.125C11.5625 26.6426 11.1429 27.0625 10.625 27.0625ZM20.625 27.0625H15.625C15.1071 27.0625 14.6875 26.6426 14.6875 26.125C14.6875 25.6074 15.1071 25.1875 15.625 25.1875H20.625C21.1429 25.1875 21.5625 25.6074 21.5625 26.125C21.5625 26.6426 21.1429 27.0625 20.625 27.0625ZM30.625 27.0625H25.625C25.1071 27.0625 24.6875 26.6426 24.6875 26.125C24.6875 25.6074 25.1071 25.1875 25.625 25.1875H30.625C31.1429 25.1875 31.5625 25.6074 31.5625 26.125C31.5625 26.6426 31.1429 27.0625 30.625 27.0625ZM28.9096 20.4933C24.0006 20.4933 20.0067 16.4998 20.0067 11.5907C20.0067 6.68164 24.0006 2.6875 28.9096 2.6875C33.8187 2.6875 37.8125 6.68164 37.8125 11.5907C37.8125 16.4998 33.8187 20.4933 28.9096 20.4933ZM28.9096 4.5625C25.0345 4.5625 21.8817 7.71557 21.8817 11.5907C21.8817 15.4658 25.0345 18.6183 28.9096 18.6183C32.7847 18.6183 35.9375 15.4658 35.9375 11.5907C35.9375 7.71558 32.7847 4.5625 28.9096 4.5625Z" fill="#293A4C"/>
<path d="M28.9097 16.1183C28.3918 16.1183 27.9722 15.6984 27.9722 15.1808V8C27.9722 7.48243 28.3918 7.0625 28.9097 7.0625C29.4275 7.0625 29.8472 7.48243 29.8472 8V15.1808C29.8472 15.6984 29.4275 16.1183 28.9097 16.1183Z" fill="#293A4C"/>
<path d="M32.4999 12.5283H25.3191C24.8012 12.5283 24.3816 12.1084 24.3816 11.5908C24.3816 11.0732 24.8012 10.6533 25.3191 10.6533H32.4999C33.0178 10.6533 33.4374 11.0732 33.4374 11.5908C33.4374 12.1084 33.0178 12.5283 32.4999 12.5283Z" fill="#293A4C"/>
</svg>
