<svg width="26" height="16" viewBox="0 0 26 16" fill="none" xmlns="http://www.w3.org/2000/svg">
<path d="M25 6.99994H3.41005L8.71005 1.70994C8.89835 1.52164 9.00414 1.26624 9.00414 0.999941C9.00414 0.73364 8.89835 0.478245 8.71005 0.289941C8.52174 0.101638 8.26635 -0.00415039 8.00005 -0.00415039C7.73375 -0.00415039 7.47835 0.101638 7.29005 0.289941L0.290049 7.28994C0.209325 7.37781 0.144977 7.47941 0.100049 7.58994C0.0944541 7.62304 0.0944541 7.65684 0.100049 7.68994C0.0727839 7.7708 0.0559808 7.85482 0.0500488 7.93994V7.99994C0.050512 8.10611 0.070863 8.21126 0.110049 8.30994C0.151554 8.4222 0.2163 8.52443 0.300049 8.60994L7.30005 15.6099C7.39301 15.7037 7.50361 15.7781 7.62547 15.8288C7.74733 15.8796 7.87804 15.9057 8.01005 15.9057C8.14206 15.9057 8.27277 15.8796 8.39463 15.8288C8.51649 15.7781 8.62709 15.7037 8.72005 15.6099C8.81378 15.517 8.88817 15.4064 8.93894 15.2845C8.98971 15.1627 9.01585 15.032 9.01585 14.8999C9.01585 14.7679 8.98971 14.6372 8.93894 14.5154C8.88817 14.3935 8.81378 14.2829 8.72005 14.1899L3.41005 8.99994H25C25.2653 8.99994 25.5196 8.89458 25.7072 8.70705C25.8947 8.51951 26 8.26516 26 7.99994C26 7.73472 25.8947 7.48037 25.7072 7.29283C25.5196 7.1053 25.2653 6.99994 25 6.99994Z" fill="#637282"/>
</svg>
