<svg width="40" height="41" viewBox="0 0 40 41" fill="none" xmlns="http://www.w3.org/2000/svg">
<path d="M13.957 22.0546C13.8362 22.2207 13.874 22.4546 14.04 22.5829L18.9004 26.198V25.2546L14.4853 21.9716C14.4037 21.9141 14.3029 21.8906 14.2043 21.9061C14.1057 21.9216 14.017 21.9749 13.957 22.0546ZM26.1079 22.0546C26.0789 22.0142 26.0421 21.98 25.9998 21.9539C25.9574 21.9279 25.9103 21.9105 25.8611 21.9027C25.812 21.895 25.7618 21.8971 25.7135 21.909C25.6652 21.9208 25.6197 21.9421 25.5796 21.9716L21.1645 25.2546V26.198L26.0325 22.5829C26.1985 22.4546 26.2362 22.2207 26.1079 22.0546ZM29.957 34.4018C29.4287 34.4018 28.9155 34.5082 28.4777 34.6969C28.1306 33.7082 26.9608 32.9988 25.5494 32.9988C25.0287 32.9988 24.523 33.0969 24.0853 33.2856C23.9872 32.961 23.8211 32.6441 23.5947 32.3573H16.4702C16.2438 32.6365 16.0777 32.9459 15.9796 33.278C15.5494 33.0969 15.0513 32.9988 14.523 32.9988C13.1117 32.9988 11.9419 33.7082 11.6023 34.6969C11.1494 34.5007 10.6362 34.4026 10.1155 34.4026C8.44001 34.4026 7.07397 35.4441 7.07397 36.7271C7.07397 37.0516 7.16454 37.3686 7.33813 37.6629C7.40605 37.7829 7.5268 37.8516 7.66265 37.8516H32.4098C32.5381 37.8516 32.6664 37.7829 32.7344 37.6629C32.9079 37.3686 32.991 37.0516 32.991 36.7271C32.991 35.4441 31.6325 34.4026 29.957 34.4026" fill="black"/>
<path d="M21.1644 24.3114L25.1342 21.368C25.3229 21.2246 25.5569 21.1416 25.8059 21.1416C26.1607 21.1416 26.5003 21.3152 26.7116 21.602C27.089 22.1001 26.9833 22.8095 26.4852 23.1869L21.1644 27.1416L21.0588 27.2171C21.089 27.2246 21.1267 27.2322 21.1644 27.2397C21.8663 27.3756 22.8173 27.5114 23.8512 27.5114C25.2022 27.5114 26.7041 27.2775 28.0022 26.5227C28.0022 26.5227 28.0097 26.5227 28.0173 26.5152C28.1682 26.4322 28.3191 26.3341 28.4625 26.236C31.7607 23.8963 31.9493 18.636 31.9569 18.4095C31.9569 18.2435 31.8512 18.0926 31.6927 18.0397C31.6852 18.0397 31.655 18.0322 31.6173 18.0171C31.6097 18.0171 31.6022 18.0171 31.5871 18.0095C31.5493 17.9944 31.4965 17.9794 31.4361 17.9643C31.4059 17.9567 31.3833 17.9492 31.3607 17.9416C31.3013 17.9327 31.2432 17.9175 31.1871 17.8963C31.1342 17.8888 31.089 17.8737 31.0361 17.8661C30.9682 17.8435 30.9003 17.8284 30.8248 17.8133C30.772 17.7982 30.7191 17.7907 30.6588 17.7756L30.4474 17.7303C30.3418 17.7152 30.2286 17.6926 30.1154 17.6699L29.9644 17.6473C29.6625 17.5944 29.3305 17.5567 28.9833 17.519H28.9305C27.3305 17.368 25.3229 17.4737 23.6324 18.4397C23.6248 18.4397 23.6097 18.4397 23.5946 18.4473C23.4437 18.5378 23.3003 18.636 23.1493 18.7341C22.2965 19.3378 21.655 20.1378 21.1644 20.9907V24.3114ZM11.0286 25.7605C11.2097 25.9341 11.4059 26.085 11.6097 26.236C11.7833 26.3567 11.9644 26.4699 12.1531 26.5756C13.4286 27.2926 14.9003 27.5114 16.221 27.5114C17.255 27.5114 18.2059 27.3756 18.9003 27.2322C18.938 27.2246 18.9757 27.2171 19.0059 27.2095L18.9003 27.1341L13.5871 23.1869C13.089 22.8095 12.9833 22.1001 13.3531 21.602C13.572 21.3152 13.9116 21.1416 14.2663 21.1416C14.5078 21.1416 14.7418 21.2246 14.938 21.368L18.9003 24.3114V20.9907C18.4097 20.1303 17.7682 19.3303 16.9154 18.7341C16.7418 18.6133 16.5607 18.5001 16.372 18.3944C16.3644 18.3869 16.3569 18.3869 16.3569 18.3869C15.3984 17.8586 14.3342 17.602 13.3078 17.5114H13.3003C11.421 17.3378 9.66254 17.7001 8.84744 17.9114C8.8248 17.9114 8.80971 17.919 8.78707 17.9265C8.7116 17.9492 8.64367 17.9643 8.58329 17.9794C8.55311 17.9869 8.52292 18.002 8.49273 18.0095C8.47009 18.0095 8.45499 18.0171 8.4399 18.0246C8.40971 18.0322 8.38707 18.0397 8.37952 18.0397C8.21348 18.0926 8.10782 18.2435 8.11537 18.4095C8.11537 18.4699 8.13046 18.8397 8.19839 19.3982C8.39461 20.9454 9.01348 23.9265 11.0286 25.7605Z" fill="black"/>
<path d="M35.4135 14.5376V30.8471H20.4098V7.76782C20.289 7.79046 20.1607 7.79801 20.0324 7.79801C19.9041 7.79801 19.7758 7.79046 19.655 7.76782V30.8471H4.5909V14.5376C4.47014 14.5603 4.34184 14.5678 4.21354 14.5678C4.08524 14.5678 3.95694 14.5603 3.83618 14.5376V31.2244C3.83618 31.4282 4.00222 31.6018 4.21354 31.6018H35.7909C35.9947 31.6018 36.1683 31.4282 36.1683 31.2244V14.5376C36.0475 14.5603 35.9192 14.5678 35.7909 14.5678C35.6626 14.5678 35.5343 14.5603 35.4135 14.5376Z" fill="black"/>
<path d="M26.8702 10.4101C26.7494 10.4327 26.6211 10.4403 26.4928 10.4403C26.3645 10.4403 26.2362 10.4327 26.1155 10.4101V11.2705C26.1155 11.4742 26.2891 11.6478 26.4928 11.6478H29.7834V14.078C29.7834 14.2893 29.9494 14.4554 30.1608 14.4554C30.3721 14.4554 30.5381 14.2893 30.5381 14.078V11.2705C30.5381 11.0591 30.3721 10.8931 30.1608 10.8931H26.8702V10.4101ZM9.91171 14.4554C10.1155 14.4554 10.2891 14.2893 10.2891 14.078V11.6478H13.5721C13.7834 11.6478 13.9494 11.4742 13.9494 11.2705V10.4101C13.8287 10.4327 13.7004 10.4403 13.5721 10.4403C13.4438 10.4403 13.3155 10.4327 13.1947 10.4101V10.8931H9.91171C9.70039 10.8931 9.53435 11.0591 9.53435 11.2705V14.078C9.53435 14.2893 9.70039 14.4554 9.91171 14.4554ZM20.0347 7.04027C20.5509 7.03987 21.0458 6.8347 21.4109 6.46978C21.7759 6.10487 21.9813 5.61002 21.9819 5.09385C21.9811 4.57782 21.7756 4.08317 21.4106 3.71841C21.0456 3.35366 20.5508 3.14859 20.0347 3.14819C19.5188 3.14879 19.0242 3.35395 18.6593 3.71868C18.2945 4.08341 18.0891 4.57795 18.0883 5.09385C18.0889 5.61002 18.2943 6.10487 18.6593 6.46978C19.0244 6.8347 19.5193 7.03987 20.0355 7.04027M26.4959 9.68253C27.012 9.68213 27.507 9.47696 27.872 9.11205C28.2371 8.74713 28.4424 8.25229 28.443 7.73612C28.4422 7.22008 28.2368 6.72543 27.8717 6.36068C27.5067 5.99592 27.0119 5.79086 26.4959 5.79046C25.9801 5.79126 25.4857 5.9965 25.121 6.36121C24.7562 6.72592 24.551 7.22034 24.5502 7.73612C24.5506 8.25229 24.7558 8.74721 25.1207 9.11227C25.4856 9.47732 25.9804 9.68269 26.4966 9.68329M35.7894 9.91951C35.2733 9.92011 34.7784 10.1255 34.4135 10.4905C34.0486 10.8556 33.8434 11.3505 33.843 11.8667C33.844 12.3826 34.0496 12.877 34.4146 13.2416C34.7796 13.6062 35.2743 13.8112 35.7902 13.8116C36.306 13.8108 36.8004 13.6055 37.1651 13.2408C37.5298 12.8761 37.7351 12.3817 37.7359 11.8659C37.7353 11.3499 37.53 10.8552 37.1651 10.4903C36.8002 10.1254 36.3055 9.92011 35.7894 9.91951ZM6.15624 11.8659C6.15584 11.3496 5.95056 10.8546 5.58548 10.4895C5.2204 10.1244 4.72536 9.91916 4.20907 9.91876C3.69316 9.91976 3.1987 10.1253 2.83411 10.4903C2.46952 10.8553 2.26456 11.35 2.26416 11.8659C2.26496 12.3817 2.4702 12.8761 2.83491 13.2408C3.19962 13.6055 3.69404 13.8108 4.20982 13.8116C4.72573 13.811 5.22034 13.6058 5.58522 13.2411C5.95009 12.8764 6.15544 12.3818 6.15624 11.8659ZM13.5736 9.68253C14.0896 9.68193 14.5844 9.47667 14.9493 9.11178C15.3141 8.74689 15.5194 8.25216 15.52 7.73612C15.5192 7.22008 15.3138 6.72543 14.9487 6.36068C14.5837 5.99592 14.0889 5.79086 13.5728 5.79046C13.0571 5.79126 12.5626 5.9965 12.1979 6.36121C11.8332 6.72592 11.628 7.22034 11.6272 7.73612C11.6276 8.25229 11.8328 8.74721 12.1977 9.11227C12.5626 9.47732 13.0574 9.68269 13.5736 9.68329" fill="black"/>
</svg>
