<svg width="50" height="51" viewBox="0 0 50 51" fill="none" xmlns="http://www.w3.org/2000/svg">
<path d="M44 45.5C44.5523 45.5 45 45.0523 45 44.5C45 43.9477 44.5523 43.5 44 43.5C43.4477 43.5 43 43.9477 43 44.5C43 45.0523 43.4477 45.5 44 45.5Z" fill="black"/>
<path d="M44 38.5C41.0328 38.5 38.5687 40.6669 38.0903 43.5H33.8989C33.4343 41.2207 31.4144 39.5 29 39.5C26.5856 39.5 24.5657 41.2207 24.1011 43.5H19.858C19.4107 41.7797 17.8583 40.5 16 40.5C14.1417 40.5 12.5893 41.7797 12.142 43.5H7.85797C7.41071 41.7797 5.85828 40.5 4 40.5C1.79443 40.5 0 42.2944 0 44.5C0 46.7056 1.79443 48.5 4 48.5C5.85828 48.5 7.41071 47.2203 7.85797 45.5H12.142C12.5893 47.2203 14.1417 48.5 16 48.5C17.8583 48.5 19.4107 47.2203 19.858 45.5H24.1011C24.5657 47.7793 26.5856 49.5 29 49.5C31.4144 49.5 33.4343 47.7793 33.8989 45.5H38.0903C38.5687 48.3331 41.0328 50.5 44 50.5C47.3086 50.5 50 47.8086 50 44.5C50 41.1914 47.3086 38.5 44 38.5ZM4 46.5C2.89697 46.5 2 45.603 2 44.5C2 43.397 2.89697 42.5 4 42.5C5.10303 42.5 6 43.397 6 44.5C6 45.603 5.10303 46.5 4 46.5ZM16 46.5C14.897 46.5 14 45.603 14 44.5C14 43.397 14.897 42.5 16 42.5C17.103 42.5 18 43.397 18 44.5C18 45.603 17.103 46.5 16 46.5ZM29 47.5C27.3457 47.5 26 46.1543 26 44.5C26 42.8457 27.3457 41.5 29 41.5C30.6543 41.5 32 42.8457 32 44.5C32 46.1543 30.6543 47.5 29 47.5ZM44 48.5C41.7944 48.5 40 46.7056 40 44.5C40 42.2944 41.7944 40.5 44 40.5C46.2056 40.5 48 42.2944 48 44.5C48 46.7056 46.2056 48.5 44 48.5ZM8.55273 30.3945L24.5527 38.3945C24.5615 38.3989 24.5717 38.397 24.5805 38.401C24.8549 38.5257 25.1458 38.5287 25.4463 38.395L29.8765 36.1851C30.3706 35.9385 30.5718 35.3379 30.3252 34.8437C30.0781 34.3491 29.477 34.1494 28.9839 34.395L26 35.8837V18.1182L30 16.1182C30 16.1182 30 23.4779 30 23.5C30 24.038 30.4632 24.5 31 24.5C31.1528 24.5 31.3061 24.4648 31.4473 24.3945L35.4473 22.3945C35.7861 22.2251 36 21.8789 36 21.5V13.1182L40 11.1182V28.8813L36.1235 30.8149C35.6294 31.0615 35.4282 31.6621 35.6748 32.1562C35.9214 32.6504 36.5229 32.8506 37.0161 32.605L41.4463 30.395C41.7856 30.2256 42 29.8789 42 29.5V9.5C42 9.12109 41.7861 8.77489 41.4473 8.60546L25.4473 0.605465C25.166 0.464845 24.834 0.464845 24.5527 0.605465L8.55274 8.60546C8.21387 8.77489 8 9.12109 8 9.5V29.5C8 29.8789 8.21387 30.2251 8.55273 30.3945ZM10 11.1182L24 18.1182V35.8821L10 28.8818V11.1182ZM30.7598 13.5019L16.9961 6.6201L19.2402 5.49803L33.0039 12.3799L30.7598 13.5019ZM28.5234 14.6201L25 16.3818L11.2363 9.5L14.7598 7.73828L28.5234 14.6201ZM34 20.8818L32 21.8818V15.1182L34 14.1182V20.8818ZM25 2.61816L38.7637 9.5L35.2402 11.2617L21.4766 4.37987L25 2.61816Z" fill="black"/>
<path d="M33 34.5C33.5523 34.5 34 34.0523 34 33.5C34 32.9477 33.5523 32.5 33 32.5C32.4477 32.5 32 32.9477 32 33.5C32 34.0523 32.4477 34.5 33 34.5Z" fill="black"/>
</svg>
